# xmcd
#
# Track frame offsets: 
#        182
#        25765
#        58650
#
# Disc length: 1002 seconds
#
# Revision: 0
# Processed by: cddbd v1.5.2PL0 Copyright (c) Steve Scherf et al.
# Submitted via: ExactAudioCopy v1.0b3
#
DISCID=1d03e803
DTITLE=Gary D. - Slammin' (Cut The Midrange) (Remixes)
DYEAR=1900
DGENRE=
TTITLE0=Slammin' (Cut The Midrange) (Illuminatus Remix)
TTITLE1=Slammin' (Cut The Midrange) (Gary 138 D's X-Trance Mix)
TTITLE2=Slammin' (Cut The Midrange) (Video Mix)
EXTD=
EXTT0=
EXTT1=
EXTT2=
PLAYORDER=
